<svg height="514pt" viewBox="0 -24 514.42745 514" width="514pt" xmlns="http://www.w3.org/2000/svg"><path d="m417.972656 466.414062-150.035156-112.53125h-235.785156c-17.765625 0-32.152344-14.386718-32.152344-32.152343v-289.363281c0-17.765626 14.386719-32.152344 32.152344-32.152344h450.125c17.761718 0 32.148437 14.386718 32.148437 32.152344v289.363281c0 17.765625-14.386719 32.152343-32.148437 32.152343h-64.304688zm0 0" fill="#ceed5f"/><g fill="#fff"><path d="m401.894531 128.820312h-289.363281c-8.875 0-16.074219-7.203124-16.074219-16.074218 0-8.875 7.199219-16.078125 16.074219-16.078125h289.363281c8.875 0 16.078125 7.203125 16.078125 16.078125 0 8.871094-7.203125 16.074218-16.078125 16.074218zm0 0"/><path d="m401.894531 193.125h-289.363281c-8.875 0-16.074219-7.203125-16.074219-16.078125 0-8.871094 7.199219-16.074219 16.074219-16.074219h289.363281c8.875 0 16.078125 7.203125 16.078125 16.074219 0 8.875-7.203125 16.078125-16.078125 16.078125zm0 0"/><path d="m192.910156 257.425781h-80.378906c-8.875 0-16.074219-7.199219-16.074219-16.074219s7.199219-16.074218 16.074219-16.074218h80.378906zm0 0"/><path d="m225.0625 225.277344h32.152344v32.148437h-32.152344zm0 0"/><path d="m289.367188 225.277344h32.148437v32.148437h-32.148437zm0 0"/></g></svg>